<svg id="bg2" xmlns="http://www.w3.org/2000/svg" width="683.057" height="783.7" viewBox="0 0 683.057 783.7">
  <g id="Rectangle_2852" data-name="Rectangle 2852" transform="matrix(0.777, 0.629, -0.629, 0.777, 294.915, 68.994)" fill="#fff" stroke="#cde6fa" stroke-width="2">
    <rect width="482.586" height="468.625" rx="150" stroke="none"/>
    <rect x="1" y="1" width="480.586" height="466.625" rx="149" fill="none"/>
  </g>
  <g id="Rectangle_2858" data-name="Rectangle 2858" transform="matrix(0.485, -0.875, 0.875, 0.485, 7.826, 79.259)" fill="#fff" stroke="#379aeb" stroke-width="1">
    <rect width="42.901" height="42.901" rx="10" stroke="none"/>
    <rect x="0.5" y="0.5" width="41.901" height="41.901" rx="9.5" fill="none"/>
  </g>
  <g id="Rectangle_2854" data-name="Rectangle 2854" transform="translate(230.136 783.7) rotate(-90)" fill="#fff" stroke="#379aeb" stroke-width="1">
    <rect width="42.901" height="42.901" rx="10" stroke="none"/>
    <rect x="0.5" y="0.5" width="41.901" height="41.901" rx="9.5" fill="none"/>
  </g>
  <g id="Rectangle_2859" data-name="Rectangle 2859" transform="matrix(0.485, -0.875, 0.875, 0.485, 172.58, 64.692)" fill="#fff" stroke="#379aeb" stroke-width="1">
    <rect width="13.361" height="13.361" rx="6.68" stroke="none"/>
    <rect x="0.5" y="0.5" width="12.361" height="12.361" rx="6.18" fill="none"/>
  </g>
  <g id="Rectangle_2856" data-name="Rectangle 2856" transform="translate(59.705 562.69) rotate(-90)" fill="#fff" stroke="#379aeb" stroke-width="1">
    <rect width="25.881" height="25.881" rx="12.941" stroke="none"/>
    <rect x="0.5" y="0.5" width="24.881" height="24.881" rx="12.441" fill="none"/>
  </g>
  <g id="Rectangle_2864" data-name="Rectangle 2864" transform="translate(657.014 445.664) rotate(-90)" fill="#fff" stroke="#379aeb" stroke-width="1">
    <rect width="25.881" height="25.881" rx="12.941" stroke="none"/>
    <rect x="0.5" y="0.5" width="24.881" height="24.881" rx="12.441" fill="none"/>
  </g>
  <g id="Rectangle_2860" data-name="Rectangle 2860" transform="matrix(0.485, -0.875, 0.875, 0.485, 273.036, 72.052)" fill="#fff" stroke="#379aeb" stroke-width="1">
    <rect width="55.103" height="55.103" rx="27.551" stroke="none"/>
    <rect x="0.5" y="0.5" width="54.103" height="54.103" rx="27.051" fill="none"/>
  </g>
  <g id="Rectangle_2862" data-name="Rectangle 2862" transform="matrix(0.485, -0.875, 0.875, 0.485, 608.148, 316.65)" fill="#fff" stroke="#379aeb" stroke-width="1">
    <rect width="55.103" height="55.103" rx="27.551" stroke="none"/>
    <rect x="0.5" y="0.5" width="54.103" height="54.103" rx="27.051" fill="none"/>
  </g>
  <g id="Rectangle_2857" data-name="Rectangle 2857" transform="matrix(-0.485, -0.875, 0.875, -0.485, 93.086, 201.186)" fill="#fff" stroke="#379aeb" stroke-width="1">
    <rect width="33.187" height="60.709" rx="10" stroke="none"/>
    <rect x="0.5" y="0.5" width="32.187" height="59.709" rx="9.5" fill="none"/>
  </g>
  <g id="Rectangle_2863" data-name="Rectangle 2863" transform="matrix(-0.485, -0.875, 0.875, -0.485, 494.573, 214.947)" fill="#fff" stroke="#379aeb" stroke-width="1">
    <rect width="33.187" height="60.709" rx="10" stroke="none"/>
    <rect x="0.5" y="0.5" width="32.187" height="59.709" rx="9.5" fill="none"/>
  </g>
  <g id="Rectangle_2853" data-name="Rectangle 2853" transform="matrix(0.438, -0.899, 0.899, 0.438, 557.889, 600.823)" fill="#fff" stroke="#379aeb" stroke-width="1">
    <rect width="33.187" height="60.709" rx="10" stroke="none"/>
    <rect x="0.5" y="0.5" width="32.187" height="59.709" rx="9.5" fill="none"/>
  </g>
  <g id="Rectangle_2861" data-name="Rectangle 2861" transform="matrix(0.485, -0.875, 0.875, 0.485, 415.688, 20.506)" fill="#fff" stroke="#379aeb" stroke-width="1">
    <rect width="23.445" height="43.794" rx="10" stroke="none"/>
    <rect x="0.5" y="0.5" width="22.445" height="42.794" rx="9.5" fill="none"/>
  </g>
  <g id="Rectangle_2855" data-name="Rectangle 2855" transform="translate(31.351 653.374) rotate(-90)" fill="#fff" stroke="#379aeb" stroke-width="1">
    <rect width="25.939" height="28.867" rx="10" stroke="none"/>
    <rect x="0.5" y="0.5" width="24.939" height="27.867" rx="9.5" fill="none"/>
  </g>
</svg>
