<svg xmlns="http://www.w3.org/2000/svg" xmlns:xlink="http://www.w3.org/1999/xlink" width="187.45" height="150.412" viewBox="0 0 187.45 150.412">
  <defs>
    <linearGradient id="linear-gradient" x1="2.7" y1="2.972" x2="0.5" y2="1" gradientUnits="objectBoundingBox">
      <stop offset="0" stop-color="#fff"/>
      <stop offset="0.495" stop-color="#1267ad"/>
      <stop offset="1" stop-color="#379aeb"/>
    </linearGradient>
  </defs>
  <g id="logo" transform="translate(-130 -148)">
    <g id="Group_24981" data-name="Group 24981" transform="translate(130 148)">
      <path id="Icon_awesome-building" data-name="Icon awesome-building" d="M83.9,99.931V5a5,5,0,0,0-5-5H8.947a5,5,0,0,0-5,5V99.931ZM23.936,15.822a2.5,2.5,0,0,1,2.5-2.5h8.328a2.5,2.5,0,0,1,2.5,2.5V24.15a2.5,2.5,0,0,1-2.5,2.5H26.435a2.5,2.5,0,0,1-2.5-2.5Zm0,19.986a2.5,2.5,0,0,1,2.5-2.5h8.328a2.5,2.5,0,0,1,2.5,2.5v8.328a2.5,2.5,0,0,1-2.5,2.5H26.435a2.5,2.5,0,0,1-2.5-2.5ZM34.762,66.621H26.435a2.5,2.5,0,0,1-2.5-2.5V55.8a2.5,2.5,0,0,1,2.5-2.5h8.328a2.5,2.5,0,0,1,2.5,2.5v8.328A2.5,2.5,0,0,1,34.762,66.621Zm15.822,33.31H37.26V82.443a2.5,2.5,0,0,1,2.5-2.5h8.328a2.5,2.5,0,0,1,2.5,2.5ZM63.909,64.123a2.5,2.5,0,0,1-2.5,2.5H53.083a2.5,2.5,0,0,1-2.5-2.5V55.8a2.5,2.5,0,0,1,2.5-2.5h8.328a2.5,2.5,0,0,1,2.5,2.5Zm0-19.986a2.5,2.5,0,0,1-2.5,2.5H53.083a2.5,2.5,0,0,1-2.5-2.5V35.809a2.5,2.5,0,0,1,2.5-2.5h8.328a2.5,2.5,0,0,1,2.5,2.5Zm0-19.986a2.5,2.5,0,0,1-2.5,2.5H53.083a2.5,2.5,0,0,1-2.5-2.5V15.822a2.5,2.5,0,0,1,2.5-2.5h8.328a2.5,2.5,0,0,1,2.5,2.5Z" transform="translate(-3.95)" fill="url(#linear-gradient)"/>
      <path id="Icon_metro-calculator" data-name="Icon metro-calculator" d="M42.543,3.856H9.233a6.682,6.682,0,0,0-6.662,6.662v33.31a6.681,6.681,0,0,0,6.662,6.662h33.31a6.682,6.682,0,0,0,6.662-6.662V10.518a6.682,6.682,0,0,0-6.662-6.662Zm0,26.648H9.233V23.842h33.31ZM95.84,3.856H62.53a6.681,6.681,0,0,0-6.662,6.662V97.125a6.681,6.681,0,0,0,6.662,6.662H95.84a6.682,6.682,0,0,0,6.662-6.662V10.518A6.682,6.682,0,0,0,95.84,3.856Zm0,59.959H62.53V57.153H95.84Zm0-19.986H62.53V37.167H95.84Zm-53.3,13.324H9.233a6.682,6.682,0,0,0-6.662,6.662v33.31a6.681,6.681,0,0,0,6.662,6.662h33.31a6.682,6.682,0,0,0,6.662-6.662V63.815a6.682,6.682,0,0,0-6.662-6.662Zm0,26.648H29.219V97.125H22.557V83.8H9.233V77.139H22.557V63.815h6.662V77.139H42.543Z" transform="translate(84.948 -3.856)" opacity="0.5" fill="url(#linear-gradient)"/>
    </g>
    <text id="CAPPRO" transform="translate(130 289.412)" fill="#0b3f6b" font-size="35" font-family="SegoeUI, Segoe UI" letter-spacing="0.182em"><tspan x="0" y="0">CAP</tspan><tspan y="0" fill="#98c9f1">PRO</tspan></text>
  </g>
</svg>
