<svg xmlns="http://www.w3.org/2000/svg" xmlns:xlink="http://www.w3.org/1999/xlink" width="113.877" height="88.969" viewBox="0 0 113.877 88.969">
  <defs>
    <clipPath id="clip-path">
      <rect id="Rectangle_171" data-name="Rectangle 171" width="113.877" height="88.969" fill="none"/>
    </clipPath>
  </defs>
  <g id="Group_293" data-name="Group 293" clip-path="url(#clip-path)">
    <path id="Path_678" data-name="Path 678" d="M8.1,225.513a7.539,7.539,0,0,1-3.142-.665,8.115,8.115,0,0,1-2.583-1.842,8.825,8.825,0,0,1,0-12.08,8.164,8.164,0,0,1,2.583-1.835,7.538,7.538,0,0,1,3.142-.665,7.528,7.528,0,0,1,3.683.924,8.3,8.3,0,0,1,2.789,2.465l-3.154,1.694a4.646,4.646,0,0,0-1.471-1.13,4.237,4.237,0,0,0-3.619-.035,4.613,4.613,0,0,0-1.46,1.077,5.068,5.068,0,0,0-.982,1.594,5.553,5.553,0,0,0,0,3.9,5.055,5.055,0,0,0,.982,1.594,4.686,4.686,0,0,0,1.46,1.083,4.18,4.18,0,0,0,3.619-.035,4.629,4.629,0,0,0,1.471-1.148l3.154,1.718a8.411,8.411,0,0,1-2.789,2.46,7.489,7.489,0,0,1-3.683.93" transform="translate(0 -152.124)" fill="#fff"/>
    <path id="Path_679" data-name="Path 679" d="M64.266,210.692h3.978l5.978,16.475H70.48l-.942-2.589H62.972l-.941,2.589H58.288Zm0,10.356h3.978l-2-5.46Z" transform="translate(-42.543 -153.778)" fill="#fff"/>
    <path id="Path_680" data-name="Path 680" d="M124.245,227.167V210.692h6.708a4.534,4.534,0,0,1,2.448.683,4.99,4.99,0,0,1,1.736,1.83,5.086,5.086,0,0,1,.641,2.524,5.411,5.411,0,0,1-.353,1.971,4.971,4.971,0,0,1-1.006,1.612,5.091,5.091,0,0,1-1.536,1.124l3.907,6.731h-4.072l-3.719-6.4h-1.224v6.4Zm3.53-9.932h2.754a1.59,1.59,0,0,0,.859-.241,1.843,1.843,0,0,0,.624-.642,1.772,1.772,0,0,0,0-1.765,1.845,1.845,0,0,0-.624-.641,1.6,1.6,0,0,0-.859-.241h-2.754Z" transform="translate(-90.683 -153.778)" fill="#fff"/>
    <path id="Path_681" data-name="Path 681" d="M184.255,227.168l-4.213-16.475h3.648l2.542,9.979,2.542-9.979h3.248l2.542,9.979,2.542-9.979h3.648l-4.189,16.475h-3.977l-2.189-8.544-2.166,8.544Z" transform="translate(-131.407 -153.778)" fill="#fff"/>
    <path id="Path_682" data-name="Path 682" d="M262.257,210.692h3.978l5.978,16.475h-3.742l-.942-2.589h-6.567l-.941,2.589h-3.742Zm0,10.356h3.978l-2-5.46Z" transform="translate(-187.05 -153.778)" fill="#fff"/>
    <path id="Path_683" data-name="Path 683" d="M324.14,225.513a8.05,8.05,0,0,1-2.66-.441,6.689,6.689,0,0,1-2.224-1.271,4.78,4.78,0,0,1-1.377-1.983l3.319-1.224a1.493,1.493,0,0,0,.523.659,3.378,3.378,0,0,0,1.03.524,4.4,4.4,0,0,0,1.389.206,4.205,4.205,0,0,0,1.33-.206,2.682,2.682,0,0,0,1.012-.571,1.129,1.129,0,0,0,.388-.847,1,1,0,0,0-.406-.818,3.131,3.131,0,0,0-1.035-.518,8.43,8.43,0,0,0-1.289-.288,13.139,13.139,0,0,1-3.207-.853,5.418,5.418,0,0,1-2.236-1.642,4.188,4.188,0,0,1-.818-2.659,4.371,4.371,0,0,1,.871-2.7,5.813,5.813,0,0,1,2.3-1.806,7.4,7.4,0,0,1,3.089-.647,8.1,8.1,0,0,1,2.665.441,6.622,6.622,0,0,1,2.23,1.277,4.715,4.715,0,0,1,1.365,2l-3.319,1.2a1.458,1.458,0,0,0-.523-.653,3.38,3.38,0,0,0-1.03-.512,4.538,4.538,0,0,0-1.389-.2,3.832,3.832,0,0,0-1.306.2,2.867,2.867,0,0,0-1.024.576,1.1,1.1,0,0,0-.4.824,1.159,1.159,0,0,0,.377.947,2.267,2.267,0,0,0,.995.441q.618.13,1.359.235a11.784,11.784,0,0,1,3.119.883,6.051,6.051,0,0,1,2.283,1.695,3.963,3.963,0,0,1,.859,2.577,4.39,4.39,0,0,1-.865,2.7,5.776,5.776,0,0,1-2.289,1.806,7.419,7.419,0,0,1-3.107.648" transform="translate(-232.011 -152.124)" fill="#fff"/>
    <path id="Path_684" data-name="Path 684" d="M383.183,210.692h3.531v16.475h-3.531v-7.061h-5.837v7.061h-3.531V210.692h3.531v5.884h5.837Z" transform="translate(-272.836 -153.778)" fill="#fff"/>
    <path id="Path_685" data-name="Path 685" d="M153.825,280.566h2.645l4.792,13.18h-2.438l-.847-2.335h-5.649l-.847,2.335h-2.438Zm-.659,8.548h3.964l-1.987-5.432Z" transform="translate(-108.781 -204.777)" fill="#fff"/>
    <path id="Path_686" data-name="Path 686" d="M201.564,293.745v-13.18h4.707a3.635,3.635,0,0,1,1.944.536,3.918,3.918,0,0,1,1.379,1.441,3.977,3.977,0,0,1,.509,1.986,3.927,3.927,0,0,1-.523,2.01,4,4,0,0,1-1.4,1.431,3.615,3.615,0,0,1-1.911.532h-2.41v5.244Zm2.3-7.541h2.165a1.7,1.7,0,0,0,.894-.245,1.826,1.826,0,0,0,.645-.659,1.8,1.8,0,0,0,.24-.923,1.824,1.824,0,0,0-.885-1.591,1.7,1.7,0,0,0-.894-.245h-2.165Z" transform="translate(-147.116 -204.776)" fill="#fff"/>
    <path id="Path_687" data-name="Path 687" d="M240.911,293.745v-13.18h4.707a3.635,3.635,0,0,1,1.944.536,3.919,3.919,0,0,1,1.379,1.441,3.977,3.977,0,0,1,.509,1.986,3.927,3.927,0,0,1-.523,2.01,4,4,0,0,1-1.4,1.431,3.615,3.615,0,0,1-1.911.532h-2.41v5.244Zm2.3-7.541h2.165a1.7,1.7,0,0,0,.894-.245,1.825,1.825,0,0,0,.645-.659,1.8,1.8,0,0,0,.24-.923,1.824,1.824,0,0,0-.885-1.591,1.7,1.7,0,0,0-.894-.245h-2.165Z" transform="translate(-175.834 -204.776)" fill="#fff"/>
    <path id="Path_688" data-name="Path 688" d="M120.723,25.12a3.8,3.8,0,0,1-1.428-2.967,3.313,3.313,0,0,1,3.309-3.309h2.636a3.128,3.128,0,0,1,2.127.835l1.239-1.858a8.969,8.969,0,0,1,7.5-3.984h14.441a8.971,8.971,0,0,1,7.5,3.986l1.236,1.855a3.128,3.128,0,0,1,2.126-.834h2.636a3.313,3.313,0,0,1,3.309,3.309,3.8,3.8,0,0,1-1.427,2.966,8.815,8.815,0,0,1,2.141,3.193,24.966,24.966,0,1,0-49.485,0,8.813,8.813,0,0,1,2.14-3.193" transform="translate(-86.387 0.001)" fill="#fff"/>
    <path id="Path_689" data-name="Path 689" d="M189.63,167.37c-.048-.033-.1-.064-.142-.1L187.79,166a.938.938,0,0,0-.565-.19H167.179a.928.928,0,0,0-.556.185l-1.717,1.284c-.042.032-.087.06-.13.09v.275a25,25,0,0,0,24.854,0Z" transform="translate(-120.265 -121.02)" fill="#fff"/>
    <path id="Path_690" data-name="Path 690" d="M143.422,72.71a9.728,9.728,0,0,0,3.153.524h16.643a9.727,9.727,0,0,0,3.153-.524l9.209-3.145A7.617,7.617,0,0,0,171.655,68l-3.836-5.756a6.836,6.836,0,0,0-5.7-3.021H147.676a6.836,6.836,0,0,0-5.7,3.021L138.139,68a7.618,7.618,0,0,0-3.926,1.561Z" transform="translate(-97.958 -43.227)" fill="#f79420"/>
    <path id="Path_691" data-name="Path 691" d="M169.055,99.811l-9.626,3.288a10.545,10.545,0,0,1-3.415.567H139.371a10.546,10.546,0,0,1-3.415-.567l-9.626-3.288a7.935,7.935,0,0,0-1.988,5.719v10.663a1.481,1.481,0,0,0,1.481,1.481h7.39a1.468,1.468,0,0,0,.888-.3l1.709-1.278a3.084,3.084,0,0,1,1.858-.622h20.046a3.093,3.093,0,0,1,1.861.622l1.706,1.278a1.475,1.475,0,0,0,.887.3h7.393a1.483,1.483,0,0,0,1.481-1.481V105.53a7.935,7.935,0,0,0-1.988-5.719" transform="translate(-90.754 -72.849)" fill="#f79420"/>
    <path id="Path_692" data-name="Path 692" d="M129.3,171.706a.871.871,0,0,0,.871.871h5.68a.871.871,0,0,0,.871-.871v-1.543H129.3Z" transform="translate(-94.374 -124.197)" fill="#27b7ff"/>
    <path id="Path_693" data-name="Path 693" d="M264.782,171.706a.871.871,0,0,0,.871.871h5.68a.871.871,0,0,0,.871-.871v-1.543h-7.421Z" transform="translate(-193.256 -124.197)" fill="#27b7ff"/>
    <path id="Path_694" data-name="Path 694" d="M185.412,27.127l.609,1.646,1.647.609a.067.067,0,0,1,0,.125l-1.647.609-.609,1.647a.067.067,0,0,1-.125,0l-.609-1.647-1.646-.609a.067.067,0,0,1,0-.125l1.646-.609.609-1.646a.067.067,0,0,1,.125,0" transform="translate(-133.557 -19.768)" fill="#0182f0" opacity="0.5"/>
    <path id="Path_695" data-name="Path 695" d="M158.332,70.061l2.611-3.918a5.515,5.515,0,0,1,4.616-2.442h13.882a5.514,5.514,0,0,1,4.615,2.441l2.612,3.919Z" transform="translate(-115.562 -46.493)" fill="#fff"/>
    <path id="Path_696" data-name="Path 696" d="M137.826,117.667l-5.224-.247a1,1,0,0,1-.954-1v-1.4a1.421,1.421,0,0,1,1.676-1.4l6.442,1.178a.627.627,0,0,1,.393.988l-.87,1.185a1.713,1.713,0,0,1-1.462.7" transform="translate(-96.086 -82.909)" fill="#fff"/>
    <path id="Path_697" data-name="Path 697" d="M140.745,154.165h-3.582a.586.586,0,0,1-.526-.844l.552-1.128a.586.586,0,0,1,.526-.328h3.558a.586.586,0,0,1,.531.835l-.528,1.128a.586.586,0,0,1-.531.338" transform="translate(-99.683 -110.842)" fill="#fff"/>
    <path id="Path_698" data-name="Path 698" d="M166.083,126.8a.619.619,0,0,1-.636-.75l.442-1.659a4.442,4.442,0,0,1,4.028-3.246c.1-.006.207-.009.314-.009H185.1c.1,0,.21,0,.313.009a4.448,4.448,0,0,1,4.028,3.246l.439,1.659a.618.618,0,0,1-.633.75Z" transform="translate(-120.741 -88.414)" fill="#fff"/>
    <path id="Path_699" data-name="Path 699" d="M260.289,117.667l5.224-.247a1,1,0,0,0,.954-1v-1.4a1.421,1.421,0,0,0-1.676-1.4L258.35,114.8a.627.627,0,0,0-.393.988l.87,1.185a1.713,1.713,0,0,0,1.462.7" transform="translate(-188.186 -82.909)" fill="#fff"/>
    <path id="Path_700" data-name="Path 700" d="M266.419,154.165H270a.586.586,0,0,0,.526-.844l-.552-1.128a.586.586,0,0,0-.527-.328h-3.558a.586.586,0,0,0-.531.835l.528,1.128a.586.586,0,0,0,.531.338" transform="translate(-193.638 -110.842)" fill="#fff"/>
    <path id="Path_701" data-name="Path 701" d="M167.313,88.867l.5,1.355,1.355.5a.055.055,0,0,1,0,.1l-1.355.5-.5,1.355a.055.055,0,0,1-.1,0l-.5-1.355-1.355-.5a.055.055,0,0,1,0-.1l1.355-.5.5-1.355a.055.055,0,0,1,.1,0" transform="translate(-120.661 -64.835)" fill="#fff"/>
    <path id="Path_702" data-name="Path 702" d="M134.389,80.555h-2.921a1.645,1.645,0,0,1-1.645-1.645,1.148,1.148,0,0,1,1.148-1.148h2.636a.983.983,0,0,1,.983.983v1.609a.2.2,0,0,1-.2.2" transform="translate(-94.754 -56.756)" fill="#f79420"/>
    <path id="Path_703" data-name="Path 703" d="M274.288,80.555h2.921a1.645,1.645,0,0,0,1.645-1.645,1.148,1.148,0,0,0-1.148-1.148H275.07a.983.983,0,0,0-.983.983v1.609a.2.2,0,0,0,.2.2" transform="translate(-200.048 -56.756)" fill="#f79420"/>
    <path id="Path_704" data-name="Path 704" d="M220.514,13.12l.968,2.615,2.615.968a.106.106,0,0,1,0,.2l-2.615.968-.968,2.615a.106.106,0,0,1-.2,0l-.968-2.615-2.615-.968a.106.106,0,0,1,0-.2l2.615-.968.968-2.615a.106.106,0,0,1,.2,0" transform="translate(-158.136 -9.526)" fill="#0182f0"/>
    <path id="Path_705" data-name="Path 705" d="M263.151,35.683l.677,1.83,1.83.677a.074.074,0,0,1,0,.139l-1.83.677-.677,1.83a.074.074,0,0,1-.139,0l-.677-1.83-1.83-.677a.074.074,0,0,1,0-.139l1.83-.677.677-1.83a.074.074,0,0,1,.139,0" transform="translate(-190.1 -26.009)" fill="#0182f0"/>
  </g>
</svg>
