<svg xmlns="http://www.w3.org/2000/svg" width="770.989" height="767.742" viewBox="0 0 770.989 767.742">
  <g id="bg3" transform="translate(0 0)">
    <g id="Rectangle_2866" data-name="Rectangle 2866" transform="matrix(0.777, 0.629, -0.629, 0.777, 326.112, 26.813)" fill="#fff" stroke="#cde6fa" stroke-width="2">
      <rect width="533.634" height="518.197" rx="150" stroke="none"/>
      <rect x="1" y="1" width="531.634" height="516.197" rx="149" fill="none"/>
    </g>
    <g id="Rectangle_2865" data-name="Rectangle 2865" transform="matrix(0.485, -0.875, 0.875, 0.485, 51.081, 80.142)" fill="#fff" stroke="#379aeb" stroke-width="1">
      <rect width="41.875" height="41.875" rx="10" stroke="none"/>
      <rect x="0.5" y="0.5" width="40.875" height="40.875" rx="9.5" fill="none"/>
    </g>
    <g id="Rectangle_2877" data-name="Rectangle 2877" transform="translate(268.076 767.742) rotate(-90)" fill="#fff" stroke="#379aeb" stroke-width="1">
      <rect width="41.875" height="41.875" rx="10" stroke="none"/>
      <rect x="0.5" y="0.5" width="40.875" height="40.875" rx="9.5" fill="none"/>
    </g>
    <g id="Rectangle_2867" data-name="Rectangle 2867" transform="matrix(0.485, -0.875, 0.875, 0.485, 211.896, 65.924)" fill="#fff" stroke="#379aeb" stroke-width="1">
      <rect width="13.041" height="13.041" rx="6.521" stroke="none"/>
      <rect x="0.5" y="0.5" width="12.041" height="12.041" rx="6.021" fill="none"/>
    </g>
    <g id="Rectangle_2870" data-name="Rectangle 2870" transform="translate(75.654 552.015) rotate(-90)" fill="#fff" stroke="#379aeb" stroke-width="1">
      <rect width="25.263" height="25.263" rx="12.631" stroke="none"/>
      <rect x="0.5" y="0.5" width="24.263" height="24.263" rx="12.131" fill="none"/>
    </g>
    <g id="Rectangle_2876" data-name="Rectangle 2876" transform="translate(702.126 446.476) rotate(-90)" fill="#fff" stroke="#379aeb" stroke-width="1">
      <rect width="25.263" height="25.263" rx="12.631" stroke="none"/>
      <rect x="0.5" y="0.5" width="24.263" height="24.263" rx="12.131" fill="none"/>
    </g>
    <g id="Rectangle_2868" data-name="Rectangle 2868" transform="matrix(0.485, -0.875, 0.875, 0.485, 309.951, 47.042)" fill="#fff" stroke="#379aeb" stroke-width="1">
      <rect width="53.785" height="53.785" rx="26.893" stroke="none"/>
      <rect x="0.5" y="0.5" width="52.785" height="52.785" rx="26.393" fill="none"/>
    </g>
    <g id="Rectangle_2871" data-name="Rectangle 2871" transform="matrix(0.485, -0.875, 0.875, 0.485, 697.871, 294.48)" fill="#fff" stroke="#379aeb" stroke-width="1">
      <rect width="53.785" height="53.785" rx="26.893" stroke="none"/>
      <rect x="0.5" y="0.5" width="52.785" height="52.785" rx="26.393" fill="none"/>
    </g>
    <g id="Rectangle_2869" data-name="Rectangle 2869" transform="matrix(-0.485, -0.875, 0.875, -0.485, 134.303, 199.154)" fill="#fff" stroke="#379aeb" stroke-width="1">
      <rect width="32.394" height="59.257" rx="10" stroke="none"/>
      <rect x="0.5" y="0.5" width="31.394" height="58.257" rx="9.5" fill="none"/>
    </g>
    <g id="Rectangle_2872" data-name="Rectangle 2872" transform="matrix(-0.485, -0.875, 0.875, -0.485, 552.257, 195.209)" fill="#fff" stroke="#379aeb" stroke-width="1">
      <rect width="32.394" height="59.257" rx="10" stroke="none"/>
      <rect x="0.5" y="0.5" width="31.394" height="58.257" rx="9.5" fill="none"/>
    </g>
    <g id="Rectangle_2873" data-name="Rectangle 2873" transform="matrix(0.438, -0.899, 0.899, 0.438, 587.994, 589.236)" fill="#fff" stroke="#379aeb" stroke-width="1">
      <rect width="32.394" height="59.257" rx="10" stroke="none"/>
      <rect x="0.5" y="0.5" width="31.394" height="58.257" rx="9.5" fill="none"/>
    </g>
    <g id="Rectangle_2874" data-name="Rectangle 2874" transform="matrix(0.485, -0.875, 0.875, 0.485, 449.192, 22.793)" fill="#fff" stroke="#379aeb" stroke-width="1">
      <rect width="22.885" height="42.747" rx="10" stroke="none"/>
      <rect x="0.5" y="0.5" width="21.885" height="41.747" rx="9.5" fill="none"/>
    </g>
    <g id="Rectangle_2875" data-name="Rectangle 2875" transform="translate(74.045 640.532) rotate(-90)" fill="#fff" stroke="#379aeb" stroke-width="1">
      <rect width="25.319" height="28.176" rx="10" stroke="none"/>
      <rect x="0.5" y="0.5" width="24.319" height="27.176" rx="9.5" fill="none"/>
    </g>
  </g>
</svg>
